<?xml version="1.0" encoding="UTF-8" standalone="no"?>
<svg
   xmlns:dc="http://purl.org/dc/elements/1.1/"
   xmlns:cc="http://creativecommons.org/ns#"
   xmlns:rdf="http://www.w3.org/1999/02/22-rdf-syntax-ns#"
   xmlns:svg="http://www.w3.org/2000/svg"
   xmlns="http://www.w3.org/2000/svg"
   xmlns:sodipodi="http://sodipodi.sourceforge.net/DTD/sodipodi-0.dtd"
   xmlns:inkscape="http://www.inkscape.org/namespaces/inkscape"
   viewBox="0 0 598.98975 105.75289"
   stroke-miterlimit="1.414"
   version="1.1"
   id="svg4"
   sodipodi:docname="vscode_1.18_icon_1.svg"
   inkscape:version="0.92.3 (2405546, 2018-03-11)"
   width="598.98975"
   height="105.75289"
   style="clip-rule:evenodd;fill-rule:evenodd;stroke-linejoin:round;stroke-miterlimit:1.41400003">
  <metadata
     id="metadata10">
    <rdf:RDF>
      <cc:Work
         rdf:about="">
        <dc:format>image/svg+xml</dc:format>
        <dc:type
           rdf:resource="http://purl.org/dc/dcmitype/StillImage" />
        <dc:title></dc:title>
      </cc:Work>
    </rdf:RDF>
  </metadata>
  <defs
     id="defs8" />
  <sodipodi:namedview
     pagecolor="#ffffff"
     bordercolor="#666666"
     borderopacity="1"
     objecttolerance="10"
     gridtolerance="10"
     guidetolerance="10"
     inkscape:pageopacity="0"
     inkscape:pageshadow="2"
     inkscape:window-width="1920"
     inkscape:window-height="1017"
     id="namedview6"
     showgrid="false"
     inkscape:zoom="1.8153846"
     inkscape:cx="275.65449"
     inkscape:cy="64.209059"
     inkscape:window-x="-8"
     inkscape:window-y="-8"
     inkscape:window-maximized="1"
     inkscape:current-layer="svg4"
     scale-x="1.3"
     fit-margin-top="0"
     fit-margin-left="0"
     fit-margin-right="0"
     fit-margin-bottom="0" />
  <path
     d="M 79.306525,0 V 90.82726 L 0,79.04834 79.306525,105.75289 105.74495,94.75488 V 12.63769 l 0.009,-0.004 -0.009,-0.0175 v -1.61745 z"
     id="path951"
     style="fill:#007acc;fill-opacity:1;stroke-width:0.40674496"
     inkscape:connector-curvature="0" />
  <path
     d="M 51.553335,15.47378 27.262235,39.48524 12.637693,28.47135 6.6104,30.48442 21.489162,45.19238 6.6104,59.89955 12.637693,61.91341 27.262235,50.89873 h 8.2e-4 l 24.2895,24.00986 14.54829,-6.18141 V 21.65519 Z m -8.1e-4,17.13254 V 57.77526 L 34.841045,45.19079 Z"
     id="path887"
     style="fill:#007acc;fill-opacity:1;stroke-width:0.40674496"
     inkscape:connector-curvature="0" />
  <g
     aria-label="Visual Studio Code"
     transform="matrix(1.4576141,0,0,1.4576141,-66.951996,-26.436907)"
     style="font-style:normal;font-weight:normal;font-size:40px;line-height:1.25;font-family:sans-serif;letter-spacing:0px;word-spacing:0px;fill:#007acc;fill-opacity:1;stroke:none"
     id="flowRoot8">
    <path
       d="m 151.1875,40.975635 -10.37109,28.007812 h -3.61329 L 127.04688,40.975635 h 3.65234 l 7.7539,22.207031 q 0.3711,1.074219 0.56641,2.480469 h 0.0781 q 0.15625,-1.171875 0.64453,-2.519532 l 7.91015,-22.167968 z"
       style="font-style:normal;font-variant:normal;font-weight:normal;font-stretch:normal;font-family:'Segoe UI';-inkscape-font-specification:'Segoe UI';fill:#007acc;fill-opacity:1"
       id="path3742" />
    <path
       d="m 156.42187,43.905322 q -0.85937,0 -1.46484,-0.585937 -0.60547,-0.585938 -0.60547,-1.484375 0,-0.898438 0.60547,-1.484375 0.60547,-0.605469 1.46484,-0.605469 0.87891,0 1.48438,0.605469 0.625,0.585937 0.625,1.484375 0,0.859375 -0.625,1.464843 -0.60547,0.605469 -1.48438,0.605469 z m 1.5625,25.078125 h -3.20312 v -20 h 3.20312 z"
       style="font-style:normal;font-variant:normal;font-weight:normal;font-stretch:normal;font-family:'Segoe UI';-inkscape-font-specification:'Segoe UI';fill:#007acc;fill-opacity:1"
       id="path3744" />
    <path
       d="m 163.25781,68.260791 v -3.4375 q 2.61719,1.933594 5.76172,1.933594 4.21875,0 4.21875,-2.8125 0,-0.800782 -0.37109,-1.347657 -0.35157,-0.566406 -0.97657,-0.996093 -0.60546,-0.429688 -1.44531,-0.761719 -0.82031,-0.351563 -1.77734,-0.722656 -1.32813,-0.527344 -2.34375,-1.054688 -0.9961,-0.546875 -1.67969,-1.210937 -0.66406,-0.683594 -1.01562,-1.542969 -0.33204,-0.859375 -0.33204,-2.011719 0,-1.40625 0.64454,-2.480469 0.64453,-1.09375 1.71875,-1.816406 1.07421,-0.742187 2.4414,-1.113281 1.38672,-0.371094 2.85156,-0.371094 2.59766,0 4.64844,0.898438 v 3.242187 q -2.20703,-1.445312 -5.07812,-1.445312 -0.89844,0 -1.6211,0.214843 -0.72265,0.195313 -1.25,0.566407 -0.50781,0.371093 -0.80078,0.898437 -0.27344,0.507813 -0.27344,1.132813 0,0.78125 0.27344,1.308593 0.29297,0.527344 0.83985,0.9375 0.54687,0.410157 1.32812,0.742188 0.78125,0.332031 1.77734,0.722656 1.32813,0.507813 2.38282,1.054688 1.05468,0.527343 1.79687,1.210937 0.74219,0.664063 1.13281,1.542969 0.41016,0.878906 0.41016,2.089844 0,1.484375 -0.66406,2.578125 -0.64453,1.09375 -1.73828,1.816406 -1.09375,0.722656 -2.51953,1.074219 -1.42579,0.351562 -2.98829,0.351562 -3.08593,0 -5.35156,-1.191406 z"
       style="font-style:normal;font-variant:normal;font-weight:normal;font-stretch:normal;font-family:'Segoe UI';-inkscape-font-specification:'Segoe UI';fill:#007acc;fill-opacity:1"
       id="path3746" />
    <path
       d="m 197.59375,68.983447 h -3.20313 v -3.164062 h -0.0781 q -1.99219,3.632812 -6.17188,3.632812 -7.14843,0 -7.14843,-8.515625 V 48.983447 h 3.18359 V 60.42876 q 0,6.328125 4.84375,6.328125 2.34375,0 3.84766,-1.71875 1.52343,-1.738282 1.52343,-4.53125 V 48.983447 h 3.20313 z"
       style="font-style:normal;font-variant:normal;font-weight:normal;font-stretch:normal;font-family:'Segoe UI';-inkscape-font-specification:'Segoe UI';fill:#007acc;fill-opacity:1"
       id="path3748" />
    <path
       d="m 218.39453,68.983447 h -3.20312 v -3.125 h -0.0781 q -2.08984,3.59375 -6.15234,3.59375 -2.98828,0 -4.6875,-1.582031 -1.67969,-1.582031 -1.67969,-4.199219 0,-5.605469 6.60156,-6.523437 l 5.9961,-0.839844 q 0,-5.097656 -4.1211,-5.097656 -3.61328,0 -6.52344,2.460937 v -3.28125 q 2.94922,-1.875 6.79688,-1.875 7.05078,0 7.05078,7.460938 z m -3.20312,-10.117187 -4.82422,0.664062 q -2.22657,0.3125 -3.35938,1.113281 -1.13281,0.78125 -1.13281,2.792969 0,1.464844 1.03516,2.402344 1.05468,0.917969 2.79296,0.917969 2.38282,0 3.92579,-1.660157 1.5625,-1.679687 1.5625,-4.238281 z"
       style="font-style:normal;font-variant:normal;font-weight:normal;font-stretch:normal;font-family:'Segoe UI';-inkscape-font-specification:'Segoe UI';fill:#007acc;fill-opacity:1"
       id="path3750" />
    <path
       d="m 227.67187,68.983447 h -3.20312 V 39.374072 h 3.20312 z"
       style="font-style:normal;font-variant:normal;font-weight:normal;font-stretch:normal;font-family:'Segoe UI';-inkscape-font-specification:'Segoe UI';fill:#007acc;fill-opacity:1"
       id="path3752" />
    <path
       d="m 244.21484,67.850635 v -3.867188 q 0.66407,0.585938 1.58203,1.054688 0.9375,0.46875 1.95313,0.800781 1.03516,0.3125 2.07031,0.488281 1.03516,0.175781 1.91406,0.175781 3.02735,0 4.51172,-1.113281 1.50391,-1.132812 1.50391,-3.242187 0,-1.132813 -0.50781,-1.972657 -0.48828,-0.839843 -1.36719,-1.523437 -0.87891,-0.703125 -2.08984,-1.328125 -1.19141,-0.644531 -2.57813,-1.347656 -1.46484,-0.742188 -2.73437,-1.503907 -1.26954,-0.761718 -2.20704,-1.679687 -0.9375,-0.917969 -1.48437,-2.070313 -0.52734,-1.171875 -0.52734,-2.734375 0,-1.914062 0.83984,-3.320312 0.83984,-1.425781 2.20703,-2.34375 1.36719,-0.917969 3.10547,-1.367188 1.75781,-0.449218 3.57422,-0.449218 4.14062,0 6.03515,0.996093 v 3.691407 q -2.48046,-1.71875 -6.36718,-1.71875 -1.07422,0 -2.14844,0.234375 -1.07422,0.214843 -1.91406,0.722656 -0.83985,0.507812 -1.36719,1.308594 -0.52734,0.800781 -0.52734,1.953125 0,1.074218 0.39062,1.855468 0.41016,0.78125 1.19141,1.425782 0.78125,0.644531 1.89453,1.25 1.13281,0.605468 2.59765,1.328125 1.50391,0.742187 2.85157,1.5625 1.34765,0.820312 2.36328,1.816406 1.01562,0.996094 1.60156,2.207031 0.60547,1.210938 0.60547,2.773438 0,2.070312 -0.82031,3.515625 -0.80078,1.425781 -2.1875,2.324218 -1.36719,0.898438 -3.16407,1.289063 -1.79687,0.410156 -3.78906,0.410156 -0.66406,0 -1.64062,-0.117187 -0.97657,-0.09766 -1.99219,-0.3125 -1.01563,-0.195313 -1.93359,-0.488282 -0.89844,-0.3125 -1.44532,-0.683593 z"
       style="font-style:normal;font-variant:normal;font-weight:normal;font-stretch:normal;font-family:'Segoe UI';-inkscape-font-specification:'Segoe UI';fill:#007acc;fill-opacity:1"
       id="path3754" />
    <path
       d="m 274.37109,68.788135 q -1.13281,0.625 -2.98828,0.625 -5.2539,0 -5.2539,-5.859375 V 51.717822 h -3.4375 v -2.734375 h 3.4375 v -4.882812 l 3.20312,-1.035157 v 5.917969 h 5.03906 v 2.734375 h -5.03906 v 11.269531 q 0,2.011719 0.68359,2.871094 0.6836,0.859375 2.26563,0.859375 1.21094,0 2.08984,-0.664062 z"
       style="font-style:normal;font-variant:normal;font-weight:normal;font-stretch:normal;font-family:'Segoe UI';-inkscape-font-specification:'Segoe UI';fill:#007acc;fill-opacity:1"
       id="path3756" />
    <path
       d="m 294.85937,68.983447 h -3.20312 v -3.164062 h -0.0781 q -1.99218,3.632812 -6.17187,3.632812 -7.14844,0 -7.14844,-8.515625 V 48.983447 h 3.1836 V 60.42876 q 0,6.328125 4.84375,6.328125 2.34375,0 3.84765,-1.71875 1.52344,-1.738282 1.52344,-4.53125 V 48.983447 h 3.20312 z"
       style="font-style:normal;font-variant:normal;font-weight:normal;font-stretch:normal;font-family:'Segoe UI';-inkscape-font-specification:'Segoe UI';fill:#007acc;fill-opacity:1"
       id="path3758" />
    <path
       d="m 318.41406,68.983447 h -3.20312 V 65.58501 h -0.0781 q -2.22656,3.867187 -6.875,3.867187 -3.76953,0 -6.03515,-2.675781 -2.2461,-2.695313 -2.2461,-7.324219 0,-4.960937 2.5,-7.949219 2.5,-2.988281 6.66016,-2.988281 4.12109,0 5.99609,3.242188 h 0.0781 V 39.374072 h 3.20312 z m -3.20312,-9.042969 V 56.99126 q 0,-2.421875 -1.60157,-4.101563 -1.60156,-1.679687 -4.0625,-1.679687 -2.92968,0 -4.60937,2.148437 -1.67969,2.148438 -1.67969,5.9375 0,3.457031 1.60156,5.46875 1.6211,1.992188 4.33594,1.992188 2.67578,0 4.33594,-1.933594 1.67969,-1.933594 1.67969,-4.882813 z"
       style="font-style:normal;font-variant:normal;font-weight:normal;font-stretch:normal;font-family:'Segoe UI';-inkscape-font-specification:'Segoe UI';fill:#007acc;fill-opacity:1"
       id="path3760" />
    <path
       d="m 326.57812,43.905322 q -0.85937,0 -1.46484,-0.585937 -0.60547,-0.585938 -0.60547,-1.484375 0,-0.898438 0.60547,-1.484375 0.60547,-0.605469 1.46484,-0.605469 0.87891,0 1.48438,0.605469 0.625,0.585937 0.625,1.484375 0,0.859375 -0.625,1.464843 -0.60547,0.605469 -1.48438,0.605469 z m 1.5625,25.078125 h -3.20312 v -20 h 3.20312 z"
       style="font-style:normal;font-variant:normal;font-weight:normal;font-stretch:normal;font-family:'Segoe UI';-inkscape-font-specification:'Segoe UI';fill:#007acc;fill-opacity:1"
       id="path3762" />
    <path
       d="m 342.98437,69.452197 q -4.43359,0 -7.08984,-2.792969 -2.63672,-2.8125 -2.63672,-7.441406 0,-5.039062 2.75391,-7.871094 2.7539,-2.832031 7.4414,-2.832031 4.47266,0 6.97266,2.753906 2.51953,2.753907 2.51953,7.636719 0,4.785156 -2.71484,7.675781 -2.69531,2.871094 -7.2461,2.871094 z m 0.23438,-18.242187 q -3.08594,0 -4.88281,2.109375 -1.79688,2.089843 -1.79688,5.78125 0,3.554687 1.81641,5.605468 1.8164,2.050782 4.86328,2.050782 3.10547,0 4.76562,-2.011719 1.67969,-2.011719 1.67969,-5.722656 0,-3.75 -1.67969,-5.78125 -1.66015,-2.03125 -4.76562,-2.03125 z"
       style="font-style:normal;font-variant:normal;font-weight:normal;font-stretch:normal;font-family:'Segoe UI';-inkscape-font-specification:'Segoe UI';fill:#007acc;fill-opacity:1"
       id="path3764" />
    <path
       d="m 388.49219,67.811572 q -3.10547,1.640625 -7.73438,1.640625 -5.97656,0 -9.57031,-3.847656 -3.59375,-3.847656 -3.59375,-10.097656 0,-6.71875 4.04297,-10.859375 4.04297,-4.140625 10.2539,-4.140625 3.98438,0 6.60157,1.152343 v 3.496094 q -3.00782,-1.679687 -6.64063,-1.679687 -4.82422,0 -7.83203,3.222656 -2.98828,3.222656 -2.98828,8.613281 0,5.117188 2.79297,8.164063 2.8125,3.027343 7.36328,3.027343 4.21875,0 7.30469,-1.875 z"
       style="font-style:normal;font-variant:normal;font-weight:normal;font-stretch:normal;font-family:'Segoe UI';-inkscape-font-specification:'Segoe UI';fill:#007acc;fill-opacity:1"
       id="path3766" />
    <path
       d="m 402.125,69.452197 q -4.43359,0 -7.08984,-2.792969 -2.63672,-2.8125 -2.63672,-7.441406 0,-5.039062 2.7539,-7.871094 2.75391,-2.832031 7.44141,-2.832031 4.47266,0 6.97266,2.753906 2.51953,2.753907 2.51953,7.636719 0,4.785156 -2.71485,7.675781 -2.69531,2.871094 -7.24609,2.871094 z m 0.23437,-18.242187 q -3.08593,0 -4.88281,2.109375 -1.79687,2.089843 -1.79687,5.78125 0,3.554687 1.8164,5.605468 1.81641,2.050782 4.86328,2.050782 3.10547,0 4.76563,-2.011719 1.67969,-2.011719 1.67969,-5.722656 0,-3.75 -1.67969,-5.78125 -1.66016,-2.03125 -4.76563,-2.03125 z"
       style="font-style:normal;font-variant:normal;font-weight:normal;font-stretch:normal;font-family:'Segoe UI';-inkscape-font-specification:'Segoe UI';fill:#007acc;fill-opacity:1"
       id="path3768" />
    <path
       d="m 434.27344,68.983447 h -3.20313 V 65.58501 h -0.0781 q -2.22657,3.867187 -6.875,3.867187 -3.76953,0 -6.03516,-2.675781 -2.24609,-2.695313 -2.24609,-7.324219 0,-4.960937 2.5,-7.949219 2.5,-2.988281 6.66015,-2.988281 4.1211,0 5.9961,3.242188 h 0.0781 V 39.374072 h 3.20313 z m -3.20313,-9.042969 V 56.99126 q 0,-2.421875 -1.60156,-4.101563 -1.60156,-1.679687 -4.0625,-1.679687 -2.92969,0 -4.60938,2.148437 -1.67968,2.148438 -1.67968,5.9375 0,3.457031 1.60156,5.46875 1.62109,1.992188 4.33594,1.992188 2.67578,0 4.33593,-1.933594 1.67969,-1.933594 1.67969,-4.882813 z"
       style="font-style:normal;font-variant:normal;font-weight:normal;font-stretch:normal;font-family:'Segoe UI';-inkscape-font-specification:'Segoe UI';fill:#007acc;fill-opacity:1"
       id="path3770" />
    <path
       d="M 456.87109,59.784228 H 442.75 q 0.0781,3.339844 1.79687,5.15625 1.71875,1.816407 4.72657,1.816407 3.3789,0 6.21093,-2.226563 v 3.007813 q -2.63671,1.914062 -6.97265,1.914062 -4.23828,0 -6.66016,-2.714844 -2.42187,-2.734375 -2.42187,-7.675781 0,-4.667969 2.63672,-7.597656 2.65625,-2.949219 6.58203,-2.949219 3.92578,0 6.07422,2.539063 2.14843,2.539062 2.14843,7.050781 z m -3.28125,-2.714843 q -0.0195,-2.773438 -1.34765,-4.316407 -1.3086,-1.542968 -3.65235,-1.542968 -2.26562,0 -3.84765,1.621093 -1.58203,1.621094 -1.95313,4.238282 z"
       style="font-style:normal;font-variant:normal;font-weight:normal;font-stretch:normal;font-family:'Segoe UI';-inkscape-font-specification:'Segoe UI';fill:#007acc;fill-opacity:1"
       id="path3772" />
  </g>
</svg>
